HIERARCHY
ROOT Hips
{
    OFFSET 0.000000 0.000000 0.000000
    CHANNELS 6 Xposition Yposition Zposition Zrotation Xrotation Yrotation
    JOINT Spine
    {
        OFFSET -0.000000 7.305679 0.000000
        CHANNELS 3 Zrotation Xrotation Yrotation
        JOINT Spine1
        {
            OFFSET -0.000000 20.356625 0.000000
            CHANNELS 3 Zrotation Xrotation Yrotation
            JOINT Neck
            {
                OFFSET -0.000000 22.138498 0.000000
                CHANNELS 3 Zrotation Xrotation Yrotation
                JOINT Head
                {
                    OFFSET -0.000000 13.809516 1.781873
                    CHANNELS 3 Zrotation Xrotation Yrotation
                    End Site
                    {
                        OFFSET -0.000000 17.818729 0.000000
                    }
                }
            }
            JOINT LeftShoulder
            {
                OFFSET 3.599131 17.989975 0.023592
                CHANNELS 3 Zrotation Xrotation Yrotation
                JOINT LeftArm
                {
                    OFFSET 12.560995 0.000000 0.000000
                    CHANNELS 3 Zrotation Xrotation Yrotation
                    JOINT LeftForeArm
                    {
                        OFFSET 22.903347 0.000000 0.000000
                        CHANNELS 3 Zrotation Xrotation Yrotation
                        JOINT LeftHand
                        {
                            OFFSET 21.865294 0.000000 0.000000
                            CHANNELS 3 Zrotation Xrotation Yrotation
                            JOINT LeftHandThumb1
                            {
                                OFFSET 1.853706 -2.106484 2.949078
                                CHANNELS 3 Zrotation Xrotation Yrotation
                                JOINT LeftHandThumb2
                                {
                                    OFFSET 2.049154 0.000000 1.336405
                                    CHANNELS 3 Zrotation Xrotation Yrotation
                                    JOINT LeftHandThumb3
                                    {
                                        OFFSET 2.672809 0.000000 0.000000
                                        CHANNELS 3 Zrotation Xrotation Yrotation
                                        End Site
                                        {
                                            OFFSET 2.381303 0.000000 0.000000
                                        }
                                    }
                                }
                            }
                            JOINT LeftHandIndex1
                            {
                                OFFSET 7.583345 0.000000 2.949078
                                CHANNELS 3 Zrotation Xrotation Yrotation
                                JOINT LeftHandIndex2
                                {
                                    OFFSET 4.454682 0.000000 0.000000
                                    CHANNELS 3 Zrotation Xrotation Yrotation
                                    JOINT LeftHandIndex3
                                    {
                                        OFFSET 2.227341 0.000000 0.000000
                                        CHANNELS 3 Zrotation Xrotation Yrotation
                                        End Site
                                        {
                                            OFFSET 1.984419 0.000000 0.000000
                                        }
                                    }
                                }
                            }
                            JOINT LeftHandMiddle1
                            {
                                OFFSET 7.583345 0.000000 0.977409
                                CHANNELS 3 Zrotation Xrotation Yrotation
                                JOINT LeftHandMiddle2
                                {
                                    OFFSET 4.900151 0.000000 0.000000
                                    CHANNELS 3 Zrotation Xrotation Yrotation
                                    JOINT LeftHandMiddle3
                                    {
                                        OFFSET 2.672809 0.000000 0.000000
                                        CHANNELS 3 Zrotation Xrotation Yrotation
                                        End Site
                                        {
                                            OFFSET 2.381303 0.000000 0.000000
                                        }
                                    }
                                }
                            }
                            JOINT LeftHandRing1
                            {
                                OFFSET 7.162047 0.000000 -0.977409
                                CHANNELS 3 Zrotation Xrotation Yrotation
                                JOINT LeftHandRing2
                                {
                                    OFFSET 4.454682 0.000000 0.000000
                                    CHANNELS 3 Zrotation Xrotation Yrotation
                                    JOINT LeftHandRing3
                                    {
                                        OFFSET 2.227341 0.000000 0.000000
                                        CHANNELS 3 Zrotation Xrotation Yrotation
                                        End Site
                                        {
                                            OFFSET 1.984419 0.000000 0.000000
                                        }
                                    }
                                }
                            }
                            JOINT LeftHandPinky1
                            {
                                OFFSET 6.740750 0.000000 -2.949078
                                CHANNELS 3 Zrotation Xrotation Yrotation
                                JOINT LeftHandPinky2
                                {
                                    OFFSET 3.563746 0.000000 0.000000
                                    CHANNELS 3 Zrotation Xrotation Yrotation
                                    JOINT LeftHandPinky3
                                    {
                                        OFFSET 1.781873 0.000000 0.000000
                                        CHANNELS 3 Zrotation Xrotation Yrotation
                                        End Site
                                        {
                                            OFFSET 1.587536 0.000000 0.000000
                                        }
                                    }
                                }
                            }
                        }
                    }
                }
            }
            JOINT RightShoulder
            {
                OFFSET -3.506995 17.989975 0.023592
                CHANNELS 3 Zrotation Xrotation Yrotation
                JOINT RightArm
                {
                    OFFSET -12.560995 0.000000 0.000000
                    CHANNELS 3 Zrotation Xrotation Yrotation
                    JOINT RightForeArm
                    {
                        OFFSET -22.903347 0.000000 0.000000
                        CHANNELS 3 Zrotation Xrotation Yrotation
                        JOINT RightHand
                        {
                            OFFSET -21.865294 0.000000 0.000000
                            CHANNELS 3 Zrotation Xrotation Yrotation
                            JOINT RightHandThumb1
                            {
                                OFFSET -1.853706 -2.106484 2.949078
                                CHANNELS 3 Zrotation Xrotation Yrotation
                                JOINT RightHandThumb2
                                {
                                    OFFSET -2.049154 0.000000 1.336405
                                    CHANNELS 3 Zrotation Xrotation Yrotation
                                    JOINT RightHandThumb3
                                    {
                                        OFFSET -2.672809 0.000000 0.000000
                                        CHANNELS 3 Zrotation Xrotation Yrotation
                                        End Site
                                        {
                                            OFFSET -2.381303 0.000000 0.000000
                                        }
                                    }
                                }
                            }
                            JOINT RightHandIndex1
                            {
                                OFFSET -7.583345 0.000000 2.949078
                                CHANNELS 3 Zrotation Xrotation Yrotation
                                JOINT RightHandIndex2
                                {
                                    OFFSET -4.454682 0.000000 0.000000
                                    CHANNELS 3 Zrotation Xrotation Yrotation
                                    JOINT RightHandIndex3
                                    {
                                        OFFSET -2.227341 0.000000 0.000000
                                        CHANNELS 3 Zrotation Xrotation Yrotation
                                        End Site
                                        {
                                            OFFSET -1.984419 0.000000 0.000000
                                        }
                                    }
                                }
                            }
                            JOINT RightHandMiddle1
                            {
                                OFFSET -7.583345 0.000000 0.977409
                                CHANNELS 3 Zrotation Xrotation Yrotation
                                JOINT RightHandMiddle2
                                {
                                    OFFSET -4.900151 0.000000 0.000000
                                    CHANNELS 3 Zrotation Xrotation Yrotation
                                    JOINT RightHandMiddle3
                                    {
                                        OFFSET -2.672809 0.000000 0.000000
                                        CHANNELS 3 Zrotation Xrotation Yrotation
                                        End Site
                                        {
                                            OFFSET -2.381303 0.000000 0.000000
                                        }
                                    }
                                }
                            }
                            JOINT RightHandRing1
                            {
                                OFFSET -7.162047 0.000000 -0.977409
                                CHANNELS 3 Zrotation Xrotation Yrotation
                                JOINT RightHandRing2
                                {
                                    OFFSET -4.454682 0.000000 0.000000
                                    CHANNELS 3 Zrotation Xrotation Yrotation
                                    JOINT RightHandRing3
                                    {
                                        OFFSET -2.227341 0.000000 0.000000
                                        CHANNELS 3 Zrotation Xrotation Yrotation
                                        End Site
                                        {
                                            OFFSET -1.984419 0.000000 0.000000
                                        }
                                    }
                                }
                            }
                            JOINT RightHandPinky1
                            {
                                OFFSET -6.740750 0.000000 -2.949078
                                CHANNELS 3 Zrotation Xrotation Yrotation
                                JOINT RightHandPinky2
                                {
                                    OFFSET -3.563746 0.000000 0.000000
                                    CHANNELS 3 Zrotation Xrotation Yrotation
                                    JOINT RightHandPinky3
                                    {
                                        OFFSET -1.781873 0.000000 0.000000
                                        CHANNELS 3 Zrotation Xrotation Yrotation
                                        End Site
                                        {
                                            OFFSET -1.587536 0.000000 0.000000
                                        }
                                    }
                                }
                            }
                        }
                    }
                }
            }
        }
    }
    JOINT LeftUpLeg
    {
        OFFSET 8.909365 0.000000 0.000000
        CHANNELS 3 Zrotation Xrotation Yrotation
        JOINT LeftLeg
        {
            OFFSET -0.000000 -38.765560 0.000000
            CHANNELS 3 Zrotation Xrotation Yrotation
            JOINT LeftFoot
            {
                OFFSET -0.000000 -35.244961 0.000000
                CHANNELS 3 Zrotation Xrotation Yrotation
                JOINT LeftToeBase
                {
                    OFFSET -0.000000 -5.791087 13.364048
                    CHANNELS 3 Zrotation Xrotation Yrotation
                    End Site
                    {
                        OFFSET -0.000000 0.000000 3.563746
                    }
                }
            }
        }
    }
    JOINT RightUpLeg
    {
        OFFSET -8.909365 0.000000 0.000000
        CHANNELS 3 Zrotation Xrotation Yrotation
        JOINT RightLeg
        {
            OFFSET -0.000000 -38.765560 0.000000
            CHANNELS 3 Zrotation Xrotation Yrotation
            JOINT RightFoot
            {
                OFFSET -0.000000 -35.244961 0.000000
                CHANNELS 3 Zrotation Xrotation Yrotation
                JOINT RightToeBase
                {
                    OFFSET -0.000000 -5.791087 13.364048
                    CHANNELS 3 Zrotation Xrotation Yrotation
                    End Site
                    {
                        OFFSET -0.000000 0.000000 3.563746
                    }
                }
            }
        }
    }
}
MOTION
Frames:    4
Frame Time:    0.008333
-8.427032    81.953354    161.338013    -2.213564    -0.833836    -17.694296    -4.691997    3.948311    -3.979429    1.326781    -2.610392    -1.353684    5.877148    8.571613    5.739086    12.089874    -4.918989    6.120212    18.429007    -23.033752    -25.261131    -15.632449    -11.501712    -45.236012    26.568916    -54.673553    -42.241886    14.260653    -54.821407    27.642046    -5.102221    -0.210885    -6.898883    0.000000    0.000000    0.000000    0.000000    0.000000    0.000000    8.478920    -0.267604    -1.794507    0.000000    0.000000    0.000000    0.000000    0.000000    0.000000    -6.552363    -3.055012    6.131736    -25.184452    0.000000    0.000000    -12.592224    0.000000    0.000000    -21.153862    -7.777568    13.109523    -50.368904    0.000000    0.000000    -25.184452    0.000000    0.000000    -35.765751    -14.290018    18.915051    -76.316521    0.000000    0.000000    -38.158260    0.000000    0.000000    -17.881416    -16.180647    9.890470    26.099257    5.544313    54.478535    -70.308548    -53.654308    19.010618    -13.440811    -53.273964    5.979372    -1.086794    -0.810264    0.557842    0.000000    0.000000    0.000000    0.000000    0.000000    0.000000    1.076918    0.014747    0.784456    2.154037    0.000000    -0.000000    1.077018    0.000000    -0.000000    2.988633    -0.055633    -0.335725    5.978072    0.000000    -0.000000    2.989036    0.000000    -0.000000    4.898612    -0.163327    -1.452939    9.802105    0.000000    -0.000000    4.901054    0.000000    -0.000000    6.863905    -0.313141    -2.599602    13.742022    0.000000    -0.000000    6.871010    0.000000    -0.000000    0.070181    -3.513296    7.192385    -0.629106    15.952247    21.436180    -4.104860    -10.551371    -17.705328    0.159979    1.076873    -0.262437    1.124689    -5.575785    -1.728530    1.003927    18.157444    -8.904468    3.475760    -11.474024    14.464645    -0.253479    -1.809161    0.217702    
-8.300525    82.052879    161.201065    -1.834667    -0.283746    -17.783579    -4.474022    4.203090    -3.741452    1.098285    -3.224869    -1.274261    5.767875    7.996137    5.667125    12.190251    -4.755825    5.967439    19.066772    -24.126255    -25.047688    -15.936712    -11.887007    -46.724655    26.152050    -54.010994    -43.169689    13.980228    -54.760426    28.007477    -5.310752    -0.315585    -7.312736    0.000000    0.000000    0.000000    0.000000    0.000000    0.000000    8.466419    -0.293866    -1.973426    0.000000    0.000000    0.000000    0.000000    0.000000    0.000000    -7.079512    -3.397404    6.404479    -26.340971    0.000000    0.000000    -13.170485    0.000000    0.000000    -22.131218    -8.602360    13.702400    -52.681950    0.000000    0.000000    -26.340971    0.000000    0.000000    -37.169128    -15.721079    19.665323    -79.821121    0.000000    0.000000    -39.910561    0.000000    0.000000    -18.466370    -16.715014    9.961499    24.956224    4.618623    55.396713    -68.280899    -53.014503    20.337919    -12.612823    -52.945637    6.089433    -0.404568    -0.657118    0.765338    0.000000    0.000000    0.000000    0.000000    0.000000    0.000000    2.103576    0.043877    1.194371    4.208067    0.000000    -0.000000    2.104033    0.000000    -0.000000    3.704199    -0.023469    0.113235    7.408489    0.000000    -0.000000    3.704246    0.000000    -0.000000    5.303272    -0.120973    -0.965600    10.608916    0.000000    -0.000000    5.304460    0.000000    -0.000000    6.948586    -0.252858    -2.073839    13.906325    0.000000    -0.000000    6.953163    0.000000    -0.000000    -0.365123    -3.646983    7.016179    -0.448808    14.618946    21.818018    -3.889853    -9.778420    -17.819704    0.157595    1.096855    -0.254206    0.935145    -5.874361    -1.685582    0.918499    17.181807    -8.838773    3.371924    -10.834236    14.462002    -0.237737    -1.754841    0.198150    
-8.185320    82.130905    161.087067    -1.493679    0.185747    -17.907980    -4.264070    4.454594    -3.482787    0.876980    -3.781524    -1.190310    5.654138    7.493552    5.596438    12.289552    -4.629915    5.823604    19.704668    -25.204048    -24.822407    -16.342287    -12.163804    -48.247307    25.531769    -53.252426    -44.318111    13.778219    -54.628483    28.406477    -5.585732    -0.320544    -7.699534    0.000000    0.000000    0.000000    0.000000    0.000000    0.000000    8.437453    -0.314467    -2.119000    0.000000    0.000000    0.000000    0.000000    0.000000    0.000000    -7.681924    -3.793441    6.715471    -27.651789    0.000000    0.000000    -13.825897    0.000000    0.000000    -23.233696    -9.551788    14.311399    -55.303574    0.000000    0.000000    -27.651791    0.000000    0.000000    -38.755489    -17.348175    20.377443    -83.793297    0.000000    0.000000    -41.896648    0.000000    0.000000    -19.070908    -17.305651    10.038502    23.953808    3.705640    56.272629    -65.950882    -52.109341    21.905737    -12.212029    -52.554924    6.029198    0.416896    -0.466805    1.009056    0.000000    0.000000    0.000000    0.000000    0.000000    0.000000    3.353054    0.085962    1.466888    6.708309    0.000000    -0.000000    3.354154    0.000000    -0.000000    4.684181    0.014350    0.465119    9.368428    0.000000    -0.000000    4.684214    0.000000    -0.000000    6.013853    -0.080502    -0.534716    12.028547    0.000000    -0.000000    6.014276    0.000000    -0.000000    7.381878    -0.202451    -1.562266    14.769279    0.000000    -0.000000    7.384640    0.000000    -0.000000    -0.783792    -3.708695    6.843137    -0.263587    13.367601    22.013391    -3.631580    -9.074091    -17.723114    0.153881    1.129083    -0.241259    0.765858    -6.123847    -1.667060    0.817193    16.314138    -8.723764    3.260422    -10.249838    14.463665    -0.220741    -1.693271    0.177356    
-8.081886    82.189980    160.997040    -1.200860    0.575183    -18.064869    -4.051143    4.689692    -3.204617    0.658068    -4.255633    -1.101852    5.556394    7.060751    5.524805    12.369140    -4.537662    5.691547    20.345356    -26.237141    -24.582594    -16.773937    -12.303482    -49.770496    24.751905    -52.452946    -45.654190    13.887002    -54.368999    28.997669    -6.002749    -0.116815    -8.033918    0.000000    0.000000    0.000000    0.000000    0.000000    0.000000    8.359604    -0.317268    -2.158033    0.000000    0.000000    0.000000    0.000000    0.000000    0.000000    -8.372902    -4.245402    7.105742    -29.106472    0.000000    0.000000    -14.553231    0.000000    0.000000    -24.457651    -10.630691    14.941690    -58.212944    0.000000    0.000000    -29.106468    0.000000    0.000000    -40.513111    -19.165915    21.017643    -88.201416    0.000000    0.000000    -44.100708    0.000000    0.000000    -19.690823    -17.927877    10.102651    23.059044    2.836335    57.127792    -63.452385    -50.926098    23.603230    -12.424227    -52.057762    5.675977    1.326768    -0.301153    1.355482    0.000000    0.000000    0.000000    0.000000    0.000000    0.000000    4.665470    0.128650    1.576036    9.334478    0.000000    -0.000000    4.667239    0.000000    -0.000000    5.819624    0.055611    0.718930    11.639814    0.000000    -0.000000    5.819907    0.000000    -0.000000    6.972557    -0.034668    -0.136530    13.945149    0.000000    -0.000000    6.972575    0.000000    -0.000000    8.158880    -0.145655    -1.015831    16.320343    0.000000    -0.000000    8.160172    0.000000    -0.000000    -1.175178    -3.705065    6.677793    -0.072926    12.217289    22.004213    -3.334729    -8.445675    -17.401217    0.148820    1.173016    -0.223640    0.625813    -6.326539    -1.678863    0.702119    15.565665    -8.548107    3.138890    -9.726389    14.463350    -0.202505    -1.626953    0.155091    
